Coordinates
version=1
nRows=19
nColumns=36
inDegrees=yes

Units are S.I. units (second, meters, Newtons, ...)
If the header above contains a line with 'inDegrees', this indicates whether rotational values are in degrees (yes) or radians (no).

endheader
time	pelvis_tilt	pelvis_list	pelvis_rotation	pelvis_tx	pelvis_ty	pelvis_tz	hip_flexion_r	hip_adduction_r	hip_rotation_r	knee_angle_r	knee_angle_r_beta	ankle_angle_r	subtalar_angle_r	mtp_angle_r	hip_flexion_l	hip_adduction_l	hip_rotation_l	knee_angle_l	knee_angle_l_beta	ankle_angle_l	subtalar_angle_l	mtp_angle_l	lumbar_extension	lumbar_bending	lumbar_rotation	arm_flex_r	arm_add_r	arm_rot_r	elbow_flex_r	pro_sup_r	arm_flex_l	arm_add_l	arm_rot_l	elbow_flex_l	pro_sup_l
      8.52000000	    -10.74172325	     -1.36382376	     -3.40171595	     -0.48155294	      0.58001358	     -0.59755181	     89.93574777	     -6.79530490	      3.29522922	     97.76201015	      1.70626896	     21.18839298	     -9.91328068	     -7.49999987	     91.25350641	    -11.25285307	      5.87777040	     99.91439759	      1.74383521	     23.05161872	     -0.79596625	     -7.49999987	    -24.87935760	      1.27608810	     -0.96276996	     22.09075595	    -23.18877214	     20.73449258	    130.17496872	    102.80749511	     19.52879667	    -23.83211901	     10.96672199	    127.57466829	    101.61310041
      8.53000000	    -10.43090012	     -1.35408808	     -3.36730620	     -0.48247757	      0.58004475	     -0.59746715	     89.69546943	     -6.79868008	      3.34452211	     97.75674567	      1.70617708	     21.14428747	     -9.92354057	     -7.49999987	     91.02307431	    -11.19887443	      5.91127799	     99.92372396	      1.74399798	     23.00627930	     -0.77745851	     -7.49999987	    -24.87534800	      1.29919998	     -0.94183711	     21.30516604	    -23.22956308	     20.75783642	    130.15746460	    102.80500513	     18.86931673	    -23.85908613	     11.01600410	    127.55619180	    101.60599691
      8.54000000	    -10.14815284	     -1.37250647	     -3.36668452	     -0.48342207	      0.58003968	     -0.59725787	     89.49829219	     -6.79193429	      3.30935070	     97.77401813	      1.70647854	     21.09668204	     -9.92661720	     -7.49999987	     90.82988208	    -11.22820367	      5.92853254	     99.92320290	      1.74398889	     22.95659706	     -0.75707191	     -7.49999987	    -24.87654211	      1.31498481	     -0.91780293	     20.56715249	    -23.22331477	     20.70546060	    130.14153333	    102.80022869	     18.24578151	    -23.88069405	     10.99169099	    127.58589098	    101.60045472
      8.55000000	     -9.97436321	     -1.47938276	     -3.43697925	     -0.48434656	      0.57991187	     -0.59688224	     89.38492202	     -6.69260241	      3.16434336	     97.76264507	      1.70628004	     20.96874284	     -9.96157362	     -7.49999987	     90.79790544	    -11.38615947	      6.03783219	     99.96012915	      1.74463337	     22.82888046	     -0.65217836	     -7.49999987	    -24.90906437	      1.37588866	     -0.79659291	     19.63226824	    -22.95917628	     19.82006707	    130.31217201	    102.76582670	     17.47476909	    -23.68369617	     10.45633971	    127.97798263	    101.57143429
      8.56000000	     -9.84014295	     -1.50466076	     -3.44199548	     -0.48519026	      0.57989214	     -0.59677244	     89.30713288	     -6.69693908	      3.11054822	     97.73701052	      1.70583263	     20.87624101	    -10.02485708	     -7.49999987	     90.72613282	    -11.40520943	      6.07563351	     99.91645723	      1.74387116	     22.77019921	     -0.62746073	     -7.49999987	    -24.90472749	      1.42444333	     -0.71805542	     18.87438799	    -22.90302069	     19.58193588	    130.36698859	    102.72720202	     16.85564836	    -23.47925721	     10.36759145	    128.01696338	    101.49600843
      8.57000000	     -9.75617604	     -1.53788585	     -3.48080385	     -0.48591335	      0.57985250	     -0.59674821	     89.26491359	     -6.66943745	      3.06353806	     97.69060531	      1.70502271	     20.74297724	    -10.03235912	     -7.49999987	     90.69530249	    -11.44928732	      6.11110495	     99.88372571	      1.74329988	     22.66611318	     -0.60648461	     -7.49999987	    -24.89027850	      1.51289529	     -0.59365211	     18.10079065	    -22.80618307	     19.25909730	    130.41547926	    102.40222101	     16.25192048	    -23.14958323	     10.22156366	    128.02254751	    101.12128625
      8.58000000	     -9.67090243	     -1.50431032	     -3.52613006	     -0.48651869	      0.57981147	     -0.59669043	     89.25711767	     -6.73447321	      2.98713817	     97.66978780	      1.70465938	     20.70664647	    -10.03186152	     -7.49999987	     90.64269273	    -11.53518605	      6.03488921	     99.85966113	      1.74287988	     22.56392471	     -0.67932521	     -7.49999987	    -24.89745449	      1.49833581	     -0.50626260	     17.45260072	    -22.72673846	     19.16408261	    130.47065257	    101.74723421	     15.64240787	    -22.91128247	     10.18824813	    128.10238554	    100.48647074
      8.59000000	     -9.61168380	     -1.45414590	     -3.52550627	     -0.48705408	      0.57980473	     -0.59682987	     89.27297569	     -6.81990091	      3.02996061	     97.67925161	      1.70482455	     20.59684680	     -9.95080814	     -7.49999987	     90.59887988	    -11.57820178	      5.89862591	     99.80622235	      1.74194719	     22.34799426	     -0.90236297	     -7.49999987	    -24.91656862	      1.49805670	     -0.48264828	     16.80438128	    -22.61778659	     18.98297291	    130.58840908	     99.58225050	     15.02504725	    -22.59911253	     10.17917293	    128.36378462	     98.41581922
      8.60000000	     -9.51702683	     -1.34854259	     -3.51044976	     -0.48757376	      0.57996326	     -0.59708636	     89.25166612	     -6.96872823	      3.09972764	     97.67474080	      1.70474582	     20.55378163	     -9.85060147	     -7.49999987	     90.46072658	    -11.57322395	      5.73122630	     99.72708385	      1.74056597	     22.28582067	     -0.92860464	     -7.49999987	    -25.03319681	      1.46066751	     -0.54461327	     16.37183900	    -22.45029071	     18.90283445	    130.57874913	     98.96316372	     14.48887942	    -22.36668265	     10.22093442	    128.36374533	     97.82248557
      8.61000000	     -9.45383260	     -1.26906005	     -3.53173499	     -0.48797772	      0.57999779	     -0.59718692	     89.24457328	     -7.07234841	      3.15098262	     97.68060556	      1.70484818	     20.94397804	     -9.06688755	     -7.49999987	     90.35178861	    -11.64669882	      5.61517127	     99.68681028	      1.73986306	     22.90430209	     -0.05629324	     -7.49999987	    -25.12484181	      1.44530089	     -0.77109016	     16.21261847	    -22.21445483	     18.94680784	    130.29617797	     99.43736900	     13.78676313	    -22.14539942	      9.93620954	    128.42906719	     97.91992079
      8.62000000	     -9.46404563	     -1.26681169	     -3.61925896	     -0.48836302	      0.57983735	     -0.59701904	     89.28667202	     -7.03529838	      3.08763277	     97.63400615	      1.70403487	     20.88482493	     -9.10211395	     -7.49999987	     90.40003058	    -11.81035259	      5.54928062	     99.67226150	      1.73960914	     22.71513541	     -0.21173589	     -7.49999987	    -25.17153786	      1.46475902	     -0.72166033	     15.93562553	    -22.06033576	     18.92897106	    130.25302879	     99.03805642	     13.32259148	    -21.81792474	      9.95164090	    128.44255713	     97.47974986
      8.63000000	     -9.54975442	     -1.32530794	     -3.71152061	     -0.48852243	      0.57955188	     -0.59682958	     89.39924221	     -7.02156257	      2.91370280	     97.64012503	      1.70414166	     20.91634068	     -8.92916861	     -7.49999987	     90.56029572	    -12.03413201	      5.53528788	     99.70135442	      1.74011690	     22.77378778	      0.12940478	     -7.49999987	    -25.14582352	      1.58757076	     -0.94191210	     16.03792421	    -21.76264943	     19.16976064	    129.65487091	    102.04718211	     12.49862578	    -21.45261788	      9.27980552	    128.37809016	     99.33998918
      8.64000000	     -9.59246573	     -1.24993617	     -3.71635332	     -0.48858280	      0.57929416	     -0.59686284	     89.50520968	     -7.11211873	      2.95045784	     97.65670073	      1.70443096	     20.87717653	     -8.93345997	     -7.49999987	     90.62776254	    -12.06993037	      5.41705222	     99.72002857	      1.74044283	     22.46610431	     -0.29995527	     -7.49999987	    -25.19012259	      1.55150210	     -0.99360428	     15.81280205	    -21.64472633	     19.17928616	    129.85128428	     99.87447162	     12.16989608	    -21.27583590	      9.54335146	    128.52873048	     97.44645139
      8.65000000	     -9.65516575	     -1.27852208	     -3.72749899	     -0.48859468	      0.57908585	     -0.59687200	     89.57181094	     -7.17034699	      2.87141988	     97.66167387	      1.70451776	     21.00895359	     -8.71149874	     -7.49999987	     90.72320863	    -12.14040584	      5.43848586	     99.74953092	      1.74095774	     22.78441352	      0.15765376	     -7.49999987	    -25.25078844	      1.64764827	     -1.07542859	     15.86623304	    -21.53480157	     19.23875745	    129.41412015	    103.54325537	     11.87389090	    -21.06667048	      9.58224575	    128.27334996	     99.27612601
      8.66000000	     -9.77245854	     -1.25108344	     -3.73782348	     -0.48852987	      0.57883505	     -0.59684367	     89.71333291	     -7.21736590	      2.84063874	     97.66451430	      1.70456734	     20.94379532	     -8.82766840	     -7.49999987	     90.85942986	    -12.21648620	      5.35889495	     99.75843393	      1.74111313	     22.84550572	      0.19075644	     -7.49999987	    -25.31295715	      1.67205384	     -1.11651897	     15.85165662	    -21.37664444	     19.55121573	    129.82078275	     98.43360060	     11.67763096	    -20.78845536	      9.98442706	    128.78762485	     94.60778892
      8.67000000	     -9.87662088	     -1.26729878	     -3.78451552	     -0.48830434	      0.57850060	     -0.59671821	     89.83855397	     -7.19816986	      2.81085371	     97.70388871	      1.70525455	     21.05227650	     -8.62339174	     -7.49999987	     91.03453105	    -12.35011204	      5.33669940	     99.84058618	      1.74254696	     22.74420438	      0.18350501	     -7.49999987	    -25.37204267	      1.73819645	     -1.27854691	     16.09894771	    -21.20310084	     19.62951781	    129.21432708	    103.29771061	     11.40228883	    -20.59880433	      9.71017977	    128.20160776	     99.00555303
      8.68000000	     -9.96095885	     -1.22193341	     -3.78238180	     -0.48795149	      0.57820622	     -0.59672312	     89.96163190	     -7.24897428	      2.82416183	     97.78127951	      1.70660527	     21.04086890	     -8.65689967	     -7.49999987	     91.15579635	    -12.43747809	      5.21293131	     99.91443091	      1.74383579	     22.68806736	      0.16990717	     -7.49999987	    -25.51175497	      1.74684230	     -1.29781366	     16.18605623	    -21.07099560	     19.59648388	    129.21570827	    103.10939547	     11.40341269	    -20.31341831	      9.86770292	    128.22965901	     98.81110152
      8.69000000	    -10.12675358	     -1.19919936	     -3.77717332	     -0.48748956	      0.57779654	     -0.59668560	     90.14464097	     -7.26601612	      2.83886588	     97.84054893	      1.70763972	     21.07015704	     -8.67000171	     -7.49999987	     91.35755220	    -12.50781973	      5.14726563	     99.97356077	      1.74486780	     22.65247094	      0.14498683	     -7.49999987	    -25.57960844	      1.76641235	     -1.38079821	     16.33598095	    -20.95690873	     19.65109713	    129.22439704	    102.55433537	     11.47523239	    -20.16036330	     10.09092201	    128.22357605	     98.43965548
      8.70000000	    -10.41859861	     -1.20149772	     -3.76134049	     -0.48689920	      0.57713685	     -0.59669005	     90.46345555	     -7.30097046	      2.82450302	     97.91582595	      1.70895355	     21.15839153	     -8.59252093	     -7.49999987	     91.69730639	    -12.51779585	      5.18999373	    100.05157162	      1.74622935	     22.78569403	      0.36700849	     -7.49999987	    -25.49954056	      1.83563119	     -1.44755131	     16.62796501	    -20.92560397	     19.92420930	    129.06467086	    102.30351215	     11.62867673	    -20.19502924	     10.61612868	    128.14785875	     98.32422538
